<svg width="393" height="413" viewBox="0 0 393 413" fill="none" xmlns="http://www.w3.org/2000/svg">
<rect width="393" height="413" fill="#60A35D"/>
<path d="M59.0138 52.3567H55.9337C55.8152 51.6985 55.5947 51.1194 55.2722 50.6192C54.9497 50.119 54.5549 49.6945 54.0876 49.3457C53.6203 48.9969 53.0971 48.7336 52.5179 48.5559C51.9453 48.3782 51.3365 48.2893 50.6915 48.2893C49.5266 48.2893 48.4835 48.5822 47.5621 49.168C46.6473 49.7537 45.9233 50.6126 45.3902 51.7446C44.8637 52.8766 44.6004 54.2587 44.6004 55.8909C44.6004 57.5363 44.8637 58.925 45.3902 60.057C45.9233 61.189 46.6505 62.0446 47.5719 62.6237C48.4933 63.2029 49.5299 63.4925 50.6817 63.4925C51.3201 63.4925 51.9256 63.4069 52.4982 63.2358C53.0773 63.0581 53.6005 62.7981 54.0678 62.4559C54.5351 62.1137 54.93 61.6957 55.2525 61.2021C55.5816 60.7019 55.8086 60.1294 55.9337 59.4844L59.0138 59.4942C58.8492 60.488 58.53 61.4029 58.0562 62.2387C57.5889 63.068 56.9867 63.7853 56.2496 64.3908C55.519 64.9897 54.6832 65.4537 53.742 65.7828C52.8009 66.1119 51.7742 66.2764 50.6619 66.2764C48.9113 66.2764 47.3515 65.8618 45.9825 65.0325C44.6136 64.1967 43.5342 63.0022 42.7445 61.4489C41.9613 59.8957 41.5697 58.043 41.5697 55.8909C41.5697 53.7322 41.9646 51.8795 42.7543 50.3329C43.5441 48.7797 44.6235 47.5884 45.9924 46.7592C47.3613 45.9233 48.9179 45.5054 50.6619 45.5054C51.7347 45.5054 52.7351 45.6601 53.6631 45.9694C54.5976 46.2721 55.4368 46.7197 56.1805 47.312C56.9242 47.8978 57.5395 48.6151 58.0266 49.4641C58.5136 50.3066 58.8427 51.2707 59.0138 52.3567ZM66.8399 66.3357C65.879 66.3357 65.0103 66.158 64.2337 65.8026C63.4571 65.4406 62.8417 64.9174 62.3876 64.2329C61.9401 63.5484 61.7163 62.7093 61.7163 61.7155C61.7163 60.8599 61.8808 60.1557 62.2099 59.6028C62.539 59.05 62.9832 58.6123 63.5426 58.2898C64.1021 57.9674 64.7273 57.7238 65.4183 57.5593C66.1094 57.3948 66.8136 57.2697 67.531 57.1842C68.4392 57.0789 69.1763 56.9933 69.7423 56.9275C70.3084 56.8551 70.7197 56.7399 70.9764 56.582C71.233 56.424 71.3614 56.1673 71.3614 55.8119V55.7428C71.3614 54.8807 71.1179 54.2126 70.6308 53.7388C70.1504 53.2649 69.433 53.028 68.4787 53.028C67.4849 53.028 66.7017 53.2485 66.1291 53.6894C65.5631 54.1238 65.1715 54.6075 64.9544 55.1406L62.1803 54.5088C62.5093 53.5874 62.9898 52.8437 63.6216 52.2777C64.26 51.7051 64.9938 51.2905 65.8231 51.0338C66.6524 50.7705 67.5244 50.6389 68.4392 50.6389C69.0447 50.6389 69.6864 50.7113 70.3643 50.8561C71.0488 50.9943 71.6872 51.251 72.2795 51.6261C72.8784 52.0013 73.3687 52.5377 73.7504 53.2353C74.1322 53.9263 74.323 54.8247 74.323 55.9304V66H71.4404V63.9268H71.3219C71.131 64.3086 70.8447 64.6837 70.463 65.0523C70.0813 65.4208 69.591 65.7269 68.9921 65.9704C68.3932 66.2139 67.6758 66.3357 66.8399 66.3357ZM67.4816 63.9663C68.2977 63.9663 68.9954 63.8051 69.5745 63.4826C70.1603 63.1601 70.6045 62.7389 70.9073 62.219C71.2166 61.6924 71.3713 61.1297 71.3713 60.5308V58.5761C71.266 58.6814 71.0619 58.7802 70.7592 58.8723C70.463 58.9579 70.1241 59.0335 69.7423 59.0994C69.3606 59.1586 68.9888 59.2145 68.6268 59.2672C68.2648 59.3133 67.9621 59.3527 67.7186 59.3857C67.146 59.458 66.6227 59.5798 66.1489 59.7509C65.6816 59.922 65.3065 60.1688 65.0235 60.4913C64.747 60.8072 64.6088 61.2285 64.6088 61.755C64.6088 62.4855 64.8787 63.0384 65.4183 63.4135C65.958 63.7821 66.6458 63.9663 67.4816 63.9663ZM78.2546 71.6864V50.8364H81.1373V53.2945H81.3841C81.5552 52.9786 81.802 52.6134 82.1245 52.1987C82.447 51.7841 82.8945 51.4221 83.4671 51.1128C84.0397 50.7969 84.7966 50.6389 85.7377 50.6389C86.9619 50.6389 88.0544 50.9482 89.0153 51.5669C89.9762 52.1856 90.7297 53.0773 91.276 54.2423C91.8288 55.4072 92.1053 56.809 92.1053 58.4478C92.1053 60.0866 91.8321 61.4917 91.2859 62.6632C90.7396 63.8281 89.9893 64.7265 89.035 65.3583C88.0807 65.9835 86.9915 66.2962 85.7673 66.2962C84.8459 66.2962 84.0924 66.1415 83.5066 65.8322C82.9274 65.5228 82.4733 65.1609 82.1442 64.7462C81.8152 64.3316 81.5618 63.963 81.3841 63.6406H81.2064V71.6864H78.2546ZM81.1472 58.4182C81.1472 59.4844 81.3018 60.4189 81.6112 61.2219C81.9205 62.0248 82.368 62.6533 82.9538 63.1075C83.5395 63.555 84.2569 63.7788 85.1059 63.7788C85.9878 63.7788 86.7249 63.5451 87.3173 63.0778C87.9096 62.604 88.3571 61.9623 88.6599 61.1528C88.9692 60.3433 89.1239 59.4317 89.1239 58.4182C89.1239 57.4178 88.9725 56.5194 88.6697 55.7231C88.3736 54.9267 87.926 54.2982 87.3271 53.8375C86.7348 53.3768 85.9944 53.1464 85.1059 53.1464C84.2503 53.1464 83.5264 53.3669 82.934 53.8079C82.3483 54.2488 81.904 54.8642 81.6013 55.654C81.2985 56.4437 81.1472 57.3652 81.1472 58.4182ZM95.4124 66V50.8364H98.3642V66H95.4124ZM96.9031 48.4967C96.3898 48.4967 95.9488 48.3255 95.5803 47.9833C95.2183 47.6345 95.0373 47.2199 95.0373 46.7394C95.0373 46.2524 95.2183 45.8378 95.5803 45.4955C95.9488 45.1467 96.3898 44.9723 96.9031 44.9723C97.4165 44.9723 97.8541 45.1467 98.2161 45.4955C98.5847 45.8378 98.769 46.2524 98.769 46.7394C98.769 47.2199 98.5847 47.6345 98.2161 47.9833C97.8541 48.3255 97.4165 48.4967 96.9031 48.4967ZM109.414 50.8364V53.2057H101.131V50.8364H109.414ZM103.352 47.2034H106.304V61.5477C106.304 62.1202 106.389 62.5513 106.561 62.8409C106.732 63.1239 106.952 63.3181 107.222 63.4234C107.498 63.5221 107.798 63.5714 108.12 63.5714C108.357 63.5714 108.565 63.555 108.742 63.5221C108.92 63.4892 109.058 63.4629 109.157 63.4431L109.69 65.8815C109.519 65.9473 109.275 66.0132 108.959 66.079C108.644 66.1514 108.249 66.1909 107.775 66.1974C106.998 66.2106 106.274 66.0724 105.603 65.7828C104.932 65.4932 104.389 65.0457 103.974 64.4402C103.559 63.8347 103.352 63.0746 103.352 62.1597V47.2034ZM117.092 66.3357C116.131 66.3357 115.262 66.158 114.485 65.8026C113.709 65.4406 113.093 64.9174 112.639 64.2329C112.192 63.5484 111.968 62.7093 111.968 61.7155C111.968 60.8599 112.133 60.1557 112.462 59.6028C112.791 59.05 113.235 58.6123 113.794 58.2898C114.354 57.9674 114.979 57.7238 115.67 57.5593C116.361 57.3948 117.065 57.2697 117.783 57.1842C118.691 57.0789 119.428 56.9933 119.994 56.9275C120.56 56.8551 120.971 56.7399 121.228 56.582C121.485 56.424 121.613 56.1673 121.613 55.8119V55.7428C121.613 54.8807 121.37 54.2126 120.883 53.7388C120.402 53.2649 119.685 53.028 118.73 53.028C117.737 53.028 116.953 53.2485 116.381 53.6894C115.815 54.1238 115.423 54.6075 115.206 55.1406L112.432 54.5088C112.761 53.5874 113.242 52.8437 113.873 52.2777C114.512 51.7051 115.246 51.2905 116.075 51.0338C116.904 50.7705 117.776 50.6389 118.691 50.6389C119.296 50.6389 119.938 50.7113 120.616 50.8561C121.301 50.9943 121.939 51.251 122.531 51.6261C123.13 52.0013 123.62 52.5377 124.002 53.2353C124.384 53.9263 124.575 54.8247 124.575 55.9304V66H121.692V63.9268H121.574C121.383 64.3086 121.096 64.6837 120.715 65.0523C120.333 65.4208 119.843 65.7269 119.244 65.9704C118.645 66.2139 117.928 66.3357 117.092 66.3357ZM117.733 63.9663C118.549 63.9663 119.247 63.8051 119.826 63.4826C120.412 63.1601 120.856 62.7389 121.159 62.219C121.468 61.6924 121.623 61.1297 121.623 60.5308V58.5761C121.518 58.6814 121.314 58.7802 121.011 58.8723C120.715 58.9579 120.376 59.0335 119.994 59.0994C119.612 59.1586 119.241 59.2145 118.879 59.2672C118.517 59.3133 118.214 59.3527 117.97 59.3857C117.398 59.458 116.875 59.5798 116.401 59.7509C115.933 59.922 115.558 60.1688 115.275 60.4913C114.999 60.8072 114.861 61.2285 114.861 61.755C114.861 62.4855 115.13 63.0384 115.67 63.4135C116.21 63.7821 116.898 63.9663 117.733 63.9663ZM131.458 45.7818V66H128.506V45.7818H131.458Z" fill="#011D21"/>
<g clip-path="url(#clip0_116_273)">
<g clip-path="url(#clip1_116_273)">
<g clip-path="url(#clip2_116_273)">
<path d="M198 360H195V145H198V360Z" fill="#2D5536"/>
<path d="M198 209H195V308H198V209Z" fill="#E6E8E9"/>
<path d="M198 253H195V264H198V253Z" fill="#011D21"/>
<path d="M43 136H40V373H43V136Z" fill="#E6E8E9"/>
<path d="M74 136H71V373H74V136Z" fill="#E6E8E9"/>
<path d="M105 136H102V373H105V136Z" fill="#E6E8E9"/>
<path d="M136 136H133V373H136V136Z" fill="#E6E8E9"/>
<path d="M167 136H164V373H167V136Z" fill="#E6E8E9"/>
<path d="M198 136H195V153H198V136Z" fill="#E6E8E9"/>
<path d="M198 360H195V373H198V360Z" fill="#E6E8E9"/>
<path d="M229 136H226V373H229V136Z" fill="#E6E8E9"/>
<path d="M260 136H257V373H260V136Z" fill="#E6E8E9"/>
<path d="M291 136H288V373H291V136Z" fill="#E6E8E9"/>
<path d="M322 136H319V373H322V136Z" fill="#E6E8E9"/>
<path d="M353 136H350V373H353V136Z" fill="#E6E8E9"/>
<path d="M74 250H71V259H74V250Z" fill="#2D5536"/>
<path d="M105 202H102V307H105V202Z" fill="#2D5536"/>
<path d="M136 170H133V339H136V170Z" fill="#2D5536"/>
<path d="M136 245H133V264H136V245Z" fill="#E6E8E9"/>
<path d="M167 157H164V352H167V157Z" fill="#2D5536"/>
<path d="M167 220H164V297H167V220Z" fill="#E6E8E9"/>
<path d="M226 159H229V354H226V159Z" fill="#2D5536"/>
<path d="M229 221H226V296H229V221Z" fill="#E6E8E9"/>
<path d="M260 169H257V344H260V169Z" fill="#2D5536"/>
<path d="M260 250H257V265H260V250Z" fill="#E6E8E9"/>
<path d="M291 204H288V309H291V204Z" fill="#2D5536"/>
<path d="M322 250H319V259H322V250Z" fill="#2D5536"/>
</g>
</g>
</g>
<defs>
<clipPath id="clip0_116_273">
<rect width="313" height="237" fill="white" transform="translate(40 136)"/>
</clipPath>
<clipPath id="clip1_116_273">
<rect width="313" height="237" fill="white" transform="translate(40 136)"/>
</clipPath>
<clipPath id="clip2_116_273">
<rect width="313" height="237" fill="white" transform="translate(40 136)"/>
</clipPath>
</defs>
</svg>
