<svg width="393" height="413" viewBox="0 0 393 413" fill="none" xmlns="http://www.w3.org/2000/svg">
<rect width="393" height="413" fill="#5584BC"/>
<path d="M59.219 52.2094H56.1056C55.9859 51.5442 55.763 50.9588 55.437 50.4532C55.1111 49.9476 54.7119 49.5185 54.2396 49.1659C53.7673 48.8134 53.2384 48.5473 52.653 48.3676C52.0742 48.188 51.4589 48.0982 50.8069 48.0982C49.6294 48.0982 48.575 48.3943 47.6437 48.9863C46.719 49.5784 45.9872 50.4465 45.4484 51.5908C44.9162 52.735 44.6501 54.132 44.6501 55.7818C44.6501 57.4449 44.9162 58.8486 45.4484 59.9928C45.9872 61.137 46.7223 62.0019 47.6537 62.5873C48.585 63.1727 49.6328 63.4654 50.7969 63.4654C51.4422 63.4654 52.0543 63.3789 52.633 63.206C53.2184 63.0263 53.7473 62.7636 54.2196 62.4176C54.692 62.0717 55.0911 61.6493 55.4171 61.1504C55.7497 60.6448 55.9792 60.066 56.1056 59.4141L59.219 59.424C59.0527 60.4286 58.73 61.3533 58.251 62.1981C57.7787 63.0363 57.17 63.7614 56.4249 64.3735C55.6865 64.9788 54.8416 65.4478 53.8903 65.7805C52.939 66.1131 51.9013 66.2794 50.777 66.2794C49.0074 66.2794 47.4308 65.8603 46.0471 65.0221C44.6634 64.1772 43.5724 62.9698 42.7741 61.3998C41.9824 59.8298 41.5866 57.9572 41.5866 55.7818C41.5866 53.5998 41.9858 51.7271 42.7841 50.1638C43.5824 48.5938 44.6734 47.3897 46.0571 46.5515C47.4408 45.7067 49.0141 45.2842 50.777 45.2842C51.8613 45.2842 52.8725 45.4406 53.8105 45.7532C54.7552 46.0592 55.6034 46.5116 56.3551 47.1103C57.1068 47.7024 57.7288 48.4275 58.2211 49.2857C58.7134 50.1372 59.046 51.1118 59.219 52.2094ZM72.3784 59.6436V50.6727H75.372V66H72.4382V63.3457H72.2786C71.926 64.1639 71.3605 64.8458 70.5822 65.3913C69.8105 65.9301 68.8492 66.1996 67.6984 66.1996C66.7138 66.1996 65.8423 65.9834 65.0839 65.551C64.3322 65.1119 63.7401 64.4633 63.3077 63.6051C62.882 62.7469 62.6691 61.6859 62.6691 60.4219V50.6727H65.6527V60.0627C65.6527 61.1071 65.9421 61.9387 66.5209 62.5574C67.0996 63.176 67.8514 63.4854 68.7761 63.4854C69.3349 63.4854 69.8903 63.3457 70.4425 63.0663C71.0013 62.7869 71.4637 62.3644 71.8295 61.799C72.2021 61.2335 72.385 60.515 72.3784 59.6436ZM79.3809 66V50.6727H82.2648V53.1075H82.4244C82.7038 52.2826 83.1961 51.634 83.9013 51.1617C84.6131 50.6827 85.418 50.4432 86.3161 50.4432C86.5024 50.4432 86.7219 50.4499 86.9747 50.4632C87.2341 50.4765 87.437 50.4931 87.5834 50.5131V53.367C87.4637 53.3337 87.2508 53.2971 86.9448 53.2572C86.6388 53.2106 86.3327 53.1874 86.0267 53.1874C85.3216 53.1874 84.6929 53.337 84.1408 53.6364C83.5953 53.9291 83.1628 54.3382 82.8435 54.8638C82.5242 55.3827 82.3645 55.9747 82.3645 56.64V66H79.3809ZM90.1654 66V50.6727H93.0492V53.1075H93.2089C93.4883 52.2826 93.9806 51.634 94.6857 51.1617C95.3975 50.6827 96.2025 50.4432 97.1006 50.4432C97.2868 50.4432 97.5064 50.4499 97.7592 50.4632C98.0186 50.4765 98.2215 50.4931 98.3679 50.5131V53.367C98.2481 53.3337 98.0352 53.2971 97.7292 53.2572C97.4232 53.2106 97.1172 53.1874 96.8112 53.1874C96.106 53.1874 95.4774 53.337 94.9252 53.6364C94.3797 53.9291 93.9473 54.3382 93.628 54.8638C93.3087 55.3827 93.149 55.9747 93.149 56.64V66H90.1654ZM100.95 66V50.6727H103.933V66H100.95ZM102.457 48.3078C101.938 48.3078 101.492 48.1348 101.119 47.7889C100.754 47.4363 100.571 47.0172 100.571 46.5316C100.571 46.0393 100.754 45.6202 101.119 45.2743C101.492 44.9217 101.938 44.7454 102.457 44.7454C102.976 44.7454 103.418 44.9217 103.784 45.2743C104.156 45.6202 104.343 46.0393 104.343 46.5316C104.343 47.0172 104.156 47.4363 103.784 47.7889C103.418 48.1348 102.976 48.3078 102.457 48.3078ZM114.404 66.3093C112.92 66.3093 111.643 65.9734 110.572 65.3015C109.507 64.6229 108.689 63.6883 108.117 62.4975C107.545 61.3067 107.259 59.9429 107.259 58.4062C107.259 56.8495 107.552 55.4758 108.137 54.285C108.722 53.0876 109.547 52.1529 110.612 51.481C111.676 50.8091 112.93 50.4732 114.374 50.4732C115.538 50.4732 116.576 50.6894 117.487 51.1218C118.398 51.5475 119.134 52.1462 119.692 52.9179C120.258 53.6896 120.594 54.591 120.7 55.6222H117.796C117.637 54.9037 117.271 54.285 116.699 53.7661C116.133 53.2472 115.375 52.9878 114.424 52.9878C113.592 52.9878 112.864 53.2073 112.238 53.6464C111.62 54.0788 111.137 54.6975 110.791 55.5024C110.445 56.3007 110.272 57.2454 110.272 58.3364C110.272 59.454 110.442 60.4186 110.781 61.2302C111.121 62.0418 111.6 62.6704 112.218 63.1162C112.844 63.5619 113.579 63.7847 114.424 63.7847C114.989 63.7847 115.501 63.6816 115.96 63.4754C116.426 63.2625 116.815 62.9598 117.128 62.5673C117.447 62.1748 117.67 61.7025 117.796 61.1504H120.7C120.594 62.1416 120.271 63.0263 119.732 63.8047C119.193 64.583 118.472 65.1951 117.567 65.6408C116.669 66.0865 115.614 66.3093 114.404 66.3093ZM133.6 59.6436V50.6727H136.594V66H133.66V63.3457H133.5C133.148 64.1639 132.582 64.8458 131.804 65.3913C131.032 65.9301 130.071 66.1996 128.92 66.1996C127.936 66.1996 127.064 65.9834 126.306 65.551C125.554 65.1119 124.962 64.4633 124.53 63.6051C124.104 62.7469 123.891 61.6859 123.891 60.4219V50.6727H126.875V60.0627C126.875 61.1071 127.164 61.9387 127.743 62.5574C128.321 63.176 129.073 63.4854 129.998 63.4854C130.557 63.4854 131.112 63.3457 131.664 63.0663C132.223 62.7869 132.685 62.3644 133.051 61.799C133.424 61.2335 133.607 60.515 133.6 59.6436ZM143.586 45.5636V66H140.603V45.5636H143.586ZM157.31 59.6436V50.6727H160.303V66H157.369V63.3457H157.21C156.857 64.1639 156.292 64.8458 155.513 65.3913C154.742 65.9301 153.78 66.1996 152.63 66.1996C151.645 66.1996 150.773 65.9834 150.015 65.551C149.263 65.1119 148.671 64.4633 148.239 63.6051C147.813 62.7469 147.6 61.6859 147.6 60.4219V50.6727H150.584V60.0627C150.584 61.1071 150.873 61.9387 151.452 62.5574C152.031 63.176 152.783 63.4854 153.707 63.4854C154.266 63.4854 154.822 63.3457 155.374 63.0663C155.932 62.7869 156.395 62.3644 156.761 61.799C157.133 61.2335 157.316 60.515 157.31 59.6436ZM164.312 66V50.6727H167.176V53.1674H167.366C167.685 52.3225 168.207 51.6639 168.932 51.1916C169.657 50.7126 170.525 50.4732 171.537 50.4732C172.561 50.4732 173.419 50.7126 174.111 51.1916C174.81 51.6706 175.325 52.3292 175.658 53.1674H175.818C176.183 52.3491 176.765 51.6972 177.564 51.2116C178.362 50.7193 179.313 50.4732 180.418 50.4732C181.808 50.4732 182.942 50.9089 183.82 51.7804C184.705 52.6518 185.148 53.9657 185.148 55.7219V66H182.164V56.0013C182.164 54.9636 181.881 54.2118 181.316 53.7462C180.75 53.2805 180.075 53.0477 179.29 53.0477C178.319 53.0477 177.564 53.347 177.025 53.9457C176.486 54.5378 176.217 55.2995 176.217 56.2309V66H173.243V55.8118C173.243 54.9802 172.984 54.3116 172.465 53.806C171.946 53.3004 171.271 53.0477 170.439 53.0477C169.874 53.0477 169.351 53.1973 168.872 53.4967C168.4 53.7894 168.017 54.1985 167.725 54.7241C167.439 55.2496 167.296 55.8583 167.296 56.5502V66H164.312Z" fill="white"/>
<g clip-path="url(#clip0_116_340)">
<g clip-path="url(#clip1_116_340)">
<g clip-path="url(#clip2_116_340)">
<path d="M43 136H40V373H43V136Z" fill="#DDE6F2"/>
<path d="M74 136H71V373H74V136Z" fill="#DDE6F2"/>
<path d="M105 136H102V373H105V136Z" fill="#DDE6F2"/>
<path d="M136 136H133V373H136V136Z" fill="#DDE6F2"/>
<path d="M167 136H164V373H167V136Z" fill="#DDE6F2"/>
<path d="M198 136H195V373H198V136Z" fill="#DDE6F2"/>
<path d="M229 136H226V373H229V136Z" fill="#DDE6F2"/>
<path d="M260 136H257V373H260V136Z" fill="#DDE6F2"/>
<path d="M291 136H288V373H291V136Z" fill="#DDE6F2"/>
<path d="M322 136H319V373H322V136Z" fill="#DDE6F2"/>
<path d="M353 136H350V373H353V136Z" fill="#DDE6F2"/>
<path d="M43 327H40V373H43V327Z" fill="#DDE6F2"/>
<path d="M74 172H71V216H74V172Z" fill="#3B5C84"/>
<mask id="mask0_116_340" style="mask-type:luminance" maskUnits="userSpaceOnUse" x="102" y="172" width="3" height="155">
<path d="M105 172H102V327H105V172Z" fill="white"/>
</mask>
<g mask="url(#mask0_116_340)">
<path d="M105 172H102V327H105V172Z" fill="#3B5C84"/>
<path d="M105 189H102V338H105V189Z" fill="#DDE6F2"/>
<path d="M105 255H102V267H105V255Z" fill="#DDE6F2"/>
</g>
<mask id="mask1_116_340" style="mask-type:luminance" maskUnits="userSpaceOnUse" x="133" y="172" width="3" height="155">
<path d="M136 172H133V327H136V172Z" fill="white"/>
</mask>
<g mask="url(#mask1_116_340)">
<path d="M136 172H133V327H136V172Z" fill="#3B5C84"/>
<path d="M136 189H133V348H136V189Z" fill="#DDE6F2"/>
<path d="M136 255H133V267H136V255Z" fill="#DDE6F2"/>
</g>
<path d="M167 172H164V327H167V172Z" fill="#3B5C84"/>
<path d="M167 189H164V327H167V189Z" fill="#DDE6F2"/>
<path d="M167 255H164V267H167V255Z" fill="#DDE6F2"/>
<path d="M198 172H195V349H198V172Z" fill="#3B5C84"/>
<mask id="mask2_116_340" style="mask-type:luminance" maskUnits="userSpaceOnUse" x="226" y="172" width="3" height="155">
<path d="M229 172H226V327H229V172Z" fill="white"/>
</mask>
<g mask="url(#mask2_116_340)">
<path d="M229 172H226V327H229V172Z" fill="#3B5C84"/>
<path d="M229 189H226V346H229V189Z" fill="#DDE6F2"/>
<path d="M229 255H226V267H229V255Z" fill="#DDE6F2"/>
</g>
<mask id="mask3_116_340" style="mask-type:luminance" maskUnits="userSpaceOnUse" x="257" y="172" width="3" height="155">
<path d="M260 172H257V327H260V172Z" fill="white"/>
</mask>
<g mask="url(#mask3_116_340)">
<path d="M260 172H257V327H260V172Z" fill="#3B5C84"/>
<path d="M260 216H257V228H260V216Z" fill="#DDE6F2"/>
<path d="M260 190H257V346H260V190Z" fill="#DDE6F2"/>
</g>
<mask id="mask4_116_340" style="mask-type:luminance" maskUnits="userSpaceOnUse" x="288" y="172" width="3" height="155">
<path d="M291 172H288V327H291V172Z" fill="white"/>
</mask>
<g mask="url(#mask4_116_340)">
<path d="M291 172H288V327H291V172Z" fill="#3B5C84"/>
<path d="M291 216H288V228H291V216Z" fill="#DDE6F2"/>
<path d="M291 192H288V355H291V192Z" fill="#DDE6F2"/>
</g>
<path d="M322 172H319V212H322V172Z" fill="#3B5C84"/>
<path d="M353 165H350V172H353V165Z" fill="#DDE6F2"/>
</g>
</g>
</g>
<defs>
<clipPath id="clip0_116_340">
<rect width="313" height="237" fill="white" transform="translate(40 136)"/>
</clipPath>
<clipPath id="clip1_116_340">
<rect width="313" height="237" fill="white" transform="translate(40 136)"/>
</clipPath>
<clipPath id="clip2_116_340">
<rect width="313" height="237" fill="white" transform="translate(40 136)"/>
</clipPath>
</defs>
</svg>
