<svg width="1185" height="199" viewBox="0 0 1185 199" fill="none" xmlns="http://www.w3.org/2000/svg">
<g clip-path="url(#clip0_116_240)">
<path d="M1184 0.730469H987V198.73H1184V0.730469Z" fill="#49363A"/>
<path d="M493.335 1H493.335C438.843 1 394.668 45.1746 394.668 99.6668V99.6672C394.668 154.159 438.843 198.334 493.335 198.334H493.335C547.827 198.334 592.002 154.159 592.002 99.6672V99.6668C592.002 45.1746 547.827 1 493.335 1Z" fill="#5584BC"/>
<path d="M694.668 151.73C694.668 125.773 673.625 104.73 647.668 104.73C621.711 104.73 600.668 125.773 600.668 151.73C600.668 177.688 621.711 198.73 647.668 198.73C673.625 198.73 694.668 177.688 694.668 151.73Z" fill="#49363A"/>
<path d="M394.667 1H296.023V99.6432H394.667V1Z" fill="#011D21"/>
<path d="M986.668 104.365V1L883.303 1V104.365H986.668Z" fill="#E03F3E"/>
<path d="M394.668 99.668H197.334V198.335H394.668V99.668Z" fill="#F5EB78"/>
<path d="M883.303 198.332V104.363H789.334V198.332H883.303Z" fill="#F5EB78"/>
<path d="M197.334 1H0L98.6667 99.6668L197.334 198.334V1Z" fill="#60A35D"/>
<path d="M789.334 1H592L690.667 99.6668L789.334 198.334V1Z" fill="#60A35D"/>
<path d="M0 198.334H197.334L98.6667 99.6668L0 1V198.334Z" fill="#5584BC"/>
<path d="M732.954 57.3828H648.383L690.668 99.6686L732.954 141.955V57.3828Z" fill="#F5EB78"/>
<path d="M695.365 198.332H789.334L742.349 151.348L695.365 104.363V198.332Z" fill="#5584BC"/>
<path d="M591.639 104.365H695.004L643.321 52.6826L591.639 1V104.365Z" fill="white"/>
<path fill-rule="evenodd" clip-rule="evenodd" d="M1184.5 156.73H1158.25V182.98H1184.5V156.73ZM1184.5 182.98H1132V198.73H1184.5V182.98Z" fill="white"/>
<path fill-rule="evenodd" clip-rule="evenodd" d="M0 42.7305H19V19.7305H52V0.730469H0V16.7305V19.7305V42.7305Z" fill="white"/>
</g>
<defs>
<clipPath id="clip0_116_240">
<rect width="1185" height="199" fill="white"/>
</clipPath>
</defs>
</svg>
