<svg width="137" height="24" viewBox="0 0 137 24" fill="none" xmlns="http://www.w3.org/2000/svg">
<g clip-path="url(#clip0_116_811)">
<g clip-path="url(#clip1_116_811)">
<path fill-rule="evenodd" clip-rule="evenodd" d="M29.1946 6.39648H19.463V16.1281H29.1946V6.39648ZM9.73152 16.1281H19.463L19.4631 21.9671H9.73152V16.1281ZM0 21.9669H9.71797V23.3485H0V21.9669Z" fill="#60A35D"/>
<path d="M115.037 23.1722C112.652 23.1722 110.73 22.4102 109.273 20.8862C107.837 19.3401 107.119 17.2749 107.119 14.6907V14.6576C107.119 12.0071 107.892 9.95297 109.438 8.49522C110.984 7.03746 112.829 6.30859 114.971 6.30859C117.622 6.30859 119.389 6.84972 120.272 7.932V10.7482C119.124 9.99715 117.588 9.62167 115.667 9.62167C114.386 9.62167 113.348 9.9861 112.553 10.715C111.757 11.4439 111.36 12.5703 111.36 14.0944V15.022C111.36 18.4014 112.873 20.091 115.899 20.091C117.401 20.091 118.936 19.6603 120.504 18.7989V21.1844C119.51 22.5096 117.688 23.1722 115.037 23.1722Z" fill="#011D21"/>
<path d="M102.335 5.39005C101.672 5.39005 101.109 5.16918 100.645 4.72744C100.181 4.2636 99.9492 3.70038 99.9492 3.03777C99.9492 2.37515 100.181 1.81193 100.645 1.3481C101.109 0.88426 101.672 0.652344 102.335 0.652344C103.019 0.652344 103.594 0.88426 104.057 1.3481C104.521 1.81193 104.753 2.37515 104.753 3.03777C104.753 3.70038 104.521 4.2636 104.057 4.72744C103.594 5.16918 103.019 5.39005 102.335 5.39005ZM100.247 23.2145V7.14599H104.455V23.2145H100.247Z" fill="#011D21"/>
<path d="M87.2161 23.347C85.1841 23.347 83.5717 22.5629 82.379 20.9947C81.2084 19.4044 80.623 17.3172 80.623 14.733V14.6998C80.623 12.1156 81.2525 10.1057 82.5115 8.67C83.7926 7.23433 85.416 6.5165 87.3817 6.5165C88.8174 6.5165 89.977 6.8699 90.8605 7.57669C91.744 8.28348 92.3624 9.18905 92.7158 10.2935V0.652344H96.9234V22.9494H93.6103C93.4557 22.6181 93.3342 22.2647 93.2459 21.8892C92.9808 21.1604 92.8373 20.2879 92.8152 19.2719C91.8654 21.9886 89.9991 23.347 87.2161 23.347ZM88.6076 20.3983C89.7782 20.3983 90.75 19.9345 91.5231 19.0069C92.3182 18.0792 92.7158 16.8423 92.7158 15.2962V14.6998C92.7158 12.977 92.3293 11.6849 91.5562 10.8235C90.8052 9.9621 89.8224 9.5314 88.6076 9.5314C87.4369 9.5314 86.5203 9.91793 85.8577 10.691C85.2172 11.4641 84.8969 12.6126 84.8969 14.1366V15.2631C84.8969 16.8754 85.2172 18.1344 85.8577 19.04C86.4982 19.9456 87.4149 20.3983 88.6076 20.3983Z" fill="#011D21"/>
<path d="M69.2105 23.2053C67.819 23.2053 66.6926 22.8188 65.8312 22.0458C64.9698 21.2506 64.5391 20.1904 64.5391 18.8652V18.8321C64.5391 18.2799 64.6053 17.7829 64.7378 17.3412C64.8704 16.8994 65.1133 16.4467 65.4667 16.1153C65.8422 15.784 66.1335 15.5521 66.4275 15.3865C66.7216 15.2208 67.1564 14.9889 67.819 14.7901C68.4816 14.5692 68.9565 14.4257 69.2436 14.3594C69.5308 14.2711 70.0829 14.1275 70.9002 13.9287C72.115 13.6416 72.9432 13.3655 73.385 13.1004C73.8267 12.8133 74.0476 12.4047 74.0476 11.8746V11.7752C74.0476 10.4279 72.9543 9.75419 70.7677 9.75419C69.7075 9.75419 68.6915 9.93089 67.7196 10.2843C66.7478 10.6156 66.0189 10.969 65.533 11.3445V8.66087C66.8361 7.09268 68.8902 6.30859 71.6953 6.30859C76.0465 6.30859 78.2221 8.46209 78.2221 12.7691V18.3682C78.2221 20.2898 78.2552 21.4715 78.3215 21.9132C78.3436 22.1341 78.3877 22.4212 78.454 22.7746H74.8427C74.7544 22.62 74.644 22.3439 74.5114 21.9464C74.2685 21.1733 74.136 20.4776 74.1139 19.8591C73.4733 22.0899 71.8389 23.2053 69.2105 23.2053ZM71.0327 20.6874C71.8499 20.6874 72.5567 20.345 73.1531 19.6603C73.7494 18.9535 74.0476 18.0038 74.0476 16.8111V14.6576C73.6279 15.011 72.8438 15.4196 71.6953 15.8834C70.613 16.281 69.8621 16.6565 69.4424 17.0099C69.0228 17.3633 68.8129 17.8492 68.8129 18.4676V18.6333C68.8129 20.0027 69.5529 20.6874 71.0327 20.6874Z" fill="#011D21"/>
<path d="M37.8984 23.2102V7.14171H41.2446C41.3191 7.53928 41.4848 8.23503 41.4848 8.23503C41.4848 8.23503 41.8161 9.95783 42.0397 10.9518V11.1837C42.371 9.79218 43.0115 8.7099 43.9613 7.93685C44.911 7.14171 46.0485 6.74414 47.3738 6.74414C50.1347 6.74414 51.6256 8.29025 51.8464 11.3825C52.2219 9.90261 52.9177 8.76512 53.9337 7.96998C54.9497 7.15276 56.1313 6.74414 57.4787 6.74414C58.9806 6.74414 60.1623 7.21902 61.0237 8.16877C61.8851 9.11852 62.3158 10.5321 62.3158 12.4096V23.2102H58.1082V12.6083C58.1082 11.6586 57.9315 10.9849 57.5781 10.5874C57.2467 10.1677 56.6614 9.95783 55.8221 9.95783C54.6957 9.95783 53.8122 10.3554 53.1717 11.1506C52.5532 11.9457 52.233 13.0722 52.2109 14.5299V23.2102H48.0033V12.6083C48.0033 11.6586 47.8266 10.9849 47.4732 10.5874C47.1419 10.1677 46.5565 9.95783 45.7172 9.95783C44.6129 9.95783 43.7404 10.3554 43.0999 11.1506C42.4594 11.9457 42.1281 13.0722 42.106 14.5299V23.2102H37.8984Z" fill="#011D21"/>
<path d="M126.859 23.2053C125.467 23.2053 124.34 22.8188 123.479 22.0458C122.617 21.2506 122.188 20.1904 122.188 18.8652V18.8321C122.188 18.2799 122.254 17.7829 122.386 17.3412C122.519 16.8994 122.762 16.4467 123.115 16.1153C123.491 15.784 123.782 15.5521 124.076 15.3865C124.37 15.2208 124.805 14.9889 125.467 14.7901C126.13 14.5692 126.605 14.4257 126.892 14.3594C127.179 14.2711 127.731 14.1275 128.549 13.9287C129.763 13.6416 130.592 13.3655 131.033 13.1004C131.475 12.8133 131.696 12.4047 131.696 11.8746V11.7752C131.696 10.4279 130.602 9.75419 128.415 9.75419C127.355 9.75419 126.34 9.93089 125.368 10.2843C124.396 10.6156 123.667 10.969 123.181 11.3445V8.66087C124.485 7.09268 126.539 6.30859 129.344 6.30859C133.695 6.30859 135.87 8.46209 135.87 12.7691V18.3682C135.87 20.2898 135.903 21.4715 135.969 21.9132C135.991 22.1341 136.036 22.4212 136.102 22.7746H132.491C132.403 22.62 132.292 22.3439 132.16 21.9464C131.917 21.1733 131.784 20.4776 131.762 19.8591C131.122 22.0899 129.487 23.2053 126.859 23.2053ZM128.68 20.6874C129.497 20.6874 130.204 20.345 130.801 19.6603C131.397 18.9535 131.696 18.0038 131.696 16.8111V14.6576C131.276 15.011 130.492 15.4196 129.344 15.8834C128.262 16.281 127.51 16.6565 127.09 17.0099C126.67 17.3633 126.461 17.8492 126.461 18.4676V18.6333C126.461 20.0027 127.2 20.6874 128.68 20.6874Z" fill="#011D21"/>
</g>
</g>
<defs>
<clipPath id="clip0_116_811">
<rect width="137" height="24" fill="white"/>
</clipPath>
<clipPath id="clip1_116_811">
<rect width="137" height="24" fill="white"/>
</clipPath>
</defs>
</svg>
